<svg version="1.2" xmlns="http://www.w3.org/2000/svg" viewBox="0 0 488 48" width="488" height="48">
	<title>Proyecto nuevo</title>
	<style>
		.s0 { fill: #0e865e } 
		.s1 { fill: #ffffff } 
	</style>
	<g id="Carpeta 1">
		<path id="MUDANZAS" class="s0" aria-label="MUDANZAS"  d="m29.9 40h6l-1.5-26.9h-8l-2.8 8.9c-1 3-1.9 6.6-2.6 9.7h-0.2c-0.6-3.2-1.4-6.5-2.3-9.6l-2.6-9h-8.1l-1.8 26.9h5.7l0.5-10.2c0.2-3.4 0.3-7.5 0.5-11.2 0.7 3.6 1.6 7.4 2.5 10.6l2.9 10.4h4.7l3.3-10.5c1.1-3.2 2.2-7 3.1-10.5 0 4 0.2 7.9 0.3 11.1zm10.6-26.9v15c0 8.5 4 12.3 10.8 12.3 7 0 11.3-3.9 11.3-12.2v-15.1h-6.1v15.4c0 4.8-1.8 7.1-5 7.1-3.1 0-4.9-2.4-4.9-7.1v-15.4zm27.3 26.8c1.5 0.2 3.8 0.4 7 0.4 5.3 0 9.6-1.1 12.5-3.5 2.5-2.2 4.4-5.7 4.4-10.9 0-4.7-1.7-8.1-4.5-10.1-2.6-1.9-6-2.9-11.1-2.9-3.1 0-6 0.2-8.3 0.6zm6.1-22.1c0.5-0.1 1.5-0.2 2.8-0.2 5.3 0 8.6 2.9 8.6 8.5 0 6.4-3.7 9.5-9.2 9.4-0.8 0-1.7 0-2.2-0.1zm35.2 15.3l2.1 6.9h6.6l-8.4-26.9h-8l-8.2 26.9h6.3l1.9-6.9zm-6.9-4.5l1.6-5.7c0.5-1.6 0.9-3.6 1.3-5.2h0.1c0.4 1.6 0.8 3.6 1.3 5.2l1.7 5.7zm24.7 11.4v-8.1c0-4.4-0.1-8.2-0.3-11.8h0.2c1.3 3.2 3.1 6.7 4.7 9.5l5.8 10.4h6.4v-26.9h-5.6v7.8c0 4.1 0.1 7.7 0.4 11.3-1.3-3-2.8-6.4-4.4-9.2l-5.7-9.9h-7.1v26.9zm20.4 0h20.9v-5h-12.7v-0.2l12.5-18.2v-3.5h-19.6v5h11.7v0.2l-12.8 18.4zm39.1-6.9l2.1 6.9h6.6l-8.4-26.9h-8l-8.2 26.9h6.3l1.9-6.9zm-6.9-4.5l1.6-5.7c0.5-1.6 0.9-3.6 1.3-5.2h0.1c0.4 1.6 0.9 3.6 1.3 5.2l1.7 5.7zm18.1 10.2c1.5 0.8 4.6 1.6 7.6 1.6 7.5 0 10.9-3.8 10.9-8.3 0-3.8-2.2-6.3-7-8-3.5-1.3-5-2.1-5-3.8 0-1.4 1.3-2.6 4-2.6 2.6 0 4.5 0.7 5.6 1.3l1.3-4.9c-1.6-0.8-3.8-1.4-6.9-1.4-6.3 0-10.2 3.5-10.2 8.1 0 3.9 3 6.4 7.5 8 3.2 1.1 4.5 2.1 4.5 3.7 0 1.8-1.5 3-4.3 3-2.6 0-5.2-0.9-6.8-1.7z"/>
		<path id="MENDOZA" class="s0" aria-label="MENDOZA"  d="m294.9 40h5.9l-1.4-27h-8l-2.9 9c-0.9 3-1.8 6.6-2.5 9.7h-0.2c-0.6-3.2-1.4-6.5-2.3-9.7l-2.6-9h-8.1l-1.8 27h5.7l0.5-10.2c0.2-3.4 0.3-7.6 0.4-11.2h0.1c0.7 3.5 1.6 7.4 2.5 10.6l2.8 10.4h4.8l3.3-10.6c1-3.1 2.1-7 3-10.4h0.1c0 3.9 0.1 7.8 0.2 11.1zm26.7-16.4h-9.9v-5.6h10.5v-5h-16.6v27h17.1v-5h-11v-6.4h9.9zm10.9 16.3v-8.1c0-4.4-0.1-8.2-0.3-11.8h0.2c1.3 3.2 3.1 6.7 4.7 9.5l5.7 10.4h6.4v-26.9h-5.6v7.8c0 4.1 0.1 7.7 0.5 11.3h-0.1c-1.2-3-2.8-6.4-4.4-9.2l-5.6-9.9h-7.1v26.9zm22-0.1c1.5 0.2 3.8 0.4 6.9 0.4 5.3 0 9.7-1.1 12.5-3.5 2.6-2.2 4.4-5.7 4.4-10.9 0-4.7-1.7-8.1-4.5-10.1-2.6-2-5.9-2.9-11.1-2.9-3 0-6 0.2-8.2 0.6zm6.1-22.1c0.5-0.2 1.4-0.3 2.7-0.3 5.3 0 8.6 3 8.6 8.6 0 6.4-3.6 9.5-9.2 9.4-0.7 0-1.6 0-2.1-0.1zm33.6-5.2c-7.9 0-13.1 6-13.1 14.1 0 7.7 4.7 13.8 12.7 13.8 7.9 0 13.2-5.3 13.2-14.2 0-7.5-4.5-13.7-12.8-13.7zm-0.1 4.8c4.2 0 6.5 4.2 6.5 9.1 0 5.2-2.4 9.1-6.5 9.1-4.1 0-6.6-3.7-6.6-9 0-5.2 2.4-9.2 6.6-9.2zm15.2 22.6h21v-5h-12.8v-0.2l12.6-18.2v-3.5h-19.6v5h11.7v0.2l-12.9 18.5zm39.1-7l2.1 7h6.6l-8.4-27h-8l-8.2 27h6.3l1.9-7zm-6.8-4.5l1.6-5.7c0.4-1.6 0.8-3.6 1.2-5.2h0.1c0.4 1.6 0.9 3.6 1.3 5.2l1.7 5.7z"/>
		<path id="Forma 1" fill-rule="evenodd" class="s0" d="m243.5 45.1c-11.3 0-20.5-9.2-20.5-20.6 0-11.3 9.2-20.5 20.5-20.5 11.4 0 20.6 9.2 20.6 20.5 0 11.4-9.2 20.6-20.6 20.6z"/>
		<path id="en" class="s1" aria-label="en"  d="m239.5 29.4c-1.1 0.6-2.5 1-4.3 1-1.4 0-2.6-0.5-3.2-1.6-0.3-0.6-0.5-1.7-0.4-2.2 6 0.1 10.2-1.2 10.2-5.2 0-2.6-1.9-4.3-5-4.3-5.4 0-8.8 5.1-8.8 9.8 0 3.8 2 6.5 6.4 6.5 1.8 0 3.9-0.5 5.5-1.3zm-1.3-7.9c0 1.9-2.4 2.4-6.3 2.3 0.5-1.9 2-3.9 4.4-3.9 1.1 0 1.9 0.6 1.9 1.6zm8.4 11.5l1.4-7.2c0.6-3.6 2.8-5.7 4.5-5.7 1.5 0 2 1 2 2.3 0 0.6-0.1 1.2-0.2 1.8l-1.7 8.8h3.8l1.7-9.1c0.1-0.7 0.2-1.8 0.2-2.5 0-3-1.7-4.3-3.9-4.3-2.2 0-4.2 1-5.6 3.1h-0.1l0.4-2.8h-3.4c-0.2 1.4-0.4 3-0.8 4.9l-2 10.7z"/>
	</g>
</svg>