<?xml version="1.0" encoding="UTF-8" standalone="no"?>
<!-- Created with Inkscape (http://www.inkscape.org/) -->

<svg
   width="600"
   height="600"
   viewBox="0 0 158.75 158.75"
   version="1.1"
   id="svg1"
   xmlns="http://www.w3.org/2000/svg"
   xmlns:svg="http://www.w3.org/2000/svg">
  <defs
     id="defs1" />
  <g
     id="layer1">
    <path
       id="path28"
       d="m 107.66161,130.26601 c 0.73595,8.90854 6.34038,15.21597 6.34038,15.21597 -11.15685,-2.97509 -16.616482,-7.56585 -18.866813,-10.00618 -4.934782,1.3597 -10.23531,2.10722 -15.760198,2.10722 -26.334095,0 -47.682397,-16.79598 -47.682397,-37.51475 0,-20.718758 21.348302,-37.515064 47.682397,-37.515064 26.334411,0 47.682391,16.796306 47.682391,37.515064 0,12.38571 -7.63281,23.36615 -19.39576,30.19774 z M 155.85014,74.73428 140.61413,59.799422 V 35.03073 c 0,-3.195006 -2.58994,-5.784926 -5.78459,-5.784926 h -8.06417 c -3.00125,0 -5.43448,2.432866 -5.43448,5.43446 V 40.89726 L 86.748407,6.9983668 C 84.70032,4.990738 82.037638,3.9872628 79.374979,3.9872628 c -2.662682,0 -5.32536,1.0034752 -7.373102,3.011104 L 2.8999629,74.73428 c -2.80456541,2.749 -3.66700331,6.921314 -2.18204891,10.557216 1.48467931,3.63555 5.02127991,6.011654 8.94853191,6.011654 h 3.6777101 v 53.46733 c 0,5.51845 4.473831,9.99226 9.992254,9.99226 h 112.07711 c 5.51878,0 9.99227,-4.47381 9.99227,-9.99226 V 91.30315 h 3.67805 c 3.92688,0 7.46385,-2.376104 8.94833,-6.011654 1.48482,-3.635902 0.62241,-7.808216 -2.18203,-10.557216"
       style="fill:#0e865e;fill-opacity:1;fill-rule:nonzero;stroke:none;stroke-width:0.033994" />
    <path
       id="path1"
       d="m 107.66161,130.26601 c 0.73595,8.90854 6.34038,15.21597 6.34038,15.21597 -11.15685,-2.97509 -16.616482,-7.56585 -18.866813,-10.00618 -4.934782,1.3597 -10.23531,2.10722 -15.760198,2.10722 -26.334095,0 -47.682397,-16.79598 -47.682397,-37.51475 0,-20.718758 21.348302,-37.515064 47.682397,-37.515064 26.334411,0 47.682391,16.796306 47.682391,37.515064 0,12.38571 -7.63281,23.36615 -19.39576,30.19774 z M 155.85014,74.73428 140.61413,59.799422 V 35.03073 c 0,-3.195006 -2.58994,-5.784926 -5.78459,-5.784926 h -8.06417 c -3.00125,0 -5.43448,2.432866 -5.43448,5.43446 V 40.89726 L 86.748407,6.9983668 C 84.70032,4.990738 82.037638,3.9872628 79.374979,3.9872628 c -2.662682,0 -5.32536,1.0034752 -7.373102,3.011104 L 2.8999629,74.73428 c -2.80456541,2.749 -3.66700331,6.921314 -2.18204891,10.557216 1.48467931,3.63555 5.02127991,6.011654 8.94853191,6.011654 h 3.6777101 v 53.46733 c 0,5.51845 4.473831,9.99226 9.992254,9.99226 h 112.07711 c 5.51878,0 9.99227,-4.47381 9.99227,-9.99226 V 91.30315 h 3.67805 c 3.92688,0 7.46385,-2.376104 8.94833,-6.011654 1.48482,-3.635902 0.62241,-7.808216 -2.18203,-10.557216"
       style="fill:#0e865e;fill-opacity:1;fill-rule:nonzero;stroke:none;stroke-width:0.033994" />
  </g>
</svg>
